<svg xmlns="http://www.w3.org/2000/svg" width="83.575" height="66" viewBox="0 0 83.575 66"><defs><style>.a{fill:#3f444a;}</style></defs><g transform="translate(0 0)"><path class="a" d="M98.749,145.045H52.389a1.857,1.857,0,0,1,0-3.714h46.36a1.857,1.857,0,0,1,0,3.714Z" transform="translate(-33.781 -108.207)"/><path class="a" d="M98.749,103.982H52.389a1.857,1.857,0,1,1,0-3.714h46.36a1.857,1.857,0,1,1,0,3.714Z" transform="translate(-33.781 -80.756)"/><path class="a" d="M22.671,107.4a1.85,1.85,0,0,1-1.313-.544l-9.107-9.106H8.445A8.455,8.455,0,0,1,0,89.309V49.849A8.454,8.454,0,0,1,8.445,41.4H75.13a8.454,8.454,0,0,1,8.445,8.445V89.309a8.454,8.454,0,0,1-8.445,8.446H33.09l-9.107,9.106A1.852,1.852,0,0,1,22.671,107.4ZM8.445,45.119a4.736,4.736,0,0,0-4.73,4.73V89.309a4.736,4.736,0,0,0,4.73,4.731H13.02a1.858,1.858,0,0,1,1.313.544l8.337,8.337,8.338-8.337a1.858,1.858,0,0,1,1.313-.544H75.13a4.736,4.736,0,0,0,4.73-4.731V49.849a4.736,4.736,0,0,0-4.73-4.73Z" transform="translate(0 -41.405)"/></g></svg>