<svg xmlns="http://www.w3.org/2000/svg" width="86.004" height="68.339" viewBox="0 0 86.004 68.339"><defs><style>.a{fill:#3f444a;}</style></defs><g transform="translate(0 0)"><path class="a" d="M76.516,40.788H9.488A9.5,9.5,0,0,0,0,50.277V89.939a9.5,9.5,0,0,0,9.488,9.489H12.9l8.86,8.859a2.865,2.865,0,0,0,4.054,0l8.86-8.859H76.516A9.5,9.5,0,0,0,86,89.939V50.277A9.5,9.5,0,0,0,76.516,40.788ZM66.3,79.815H19.7a2.867,2.867,0,1,1,0-5.734H66.3a2.867,2.867,0,1,1,0,5.734Zm0-13.681H19.7a2.867,2.867,0,1,1,0-5.734H66.3a2.867,2.867,0,0,1,0,5.734Z" transform="translate(0 -40.788)"/></g></svg>