<svg xmlns="http://www.w3.org/2000/svg" width="109" height="107" viewBox="0 0 109 107"><defs><style>.a{fill:#fff;}.b{fill:#3f444a;}</style></defs><g transform="translate(-1751 -3546)"><ellipse class="a" cx="54.5" cy="53.5" rx="54.5" ry="53.5" transform="translate(1751 3546)"/><g transform="translate(1752.02 3546)"><path class="b" d="M53.43,0A53.308,53.308,0,0,1,73.866,4.052l.1.043A53.375,53.375,0,0,1,91.207,15.662h0a53.457,53.457,0,0,1,11.6,58.213l-.043.1A53.515,53.515,0,0,1,91.2,91.215h0a53.457,53.457,0,0,1-58.213,11.6l-.1-.043A53.491,53.491,0,0,1,15.645,91.215l.009-.017a53.443,53.443,0,0,1-11.6-58.2l.043-.1A53.491,53.491,0,0,1,15.653,15.653h.009A53.277,53.277,0,0,1,53.43,0ZM14.775,82.154l.209-.122c5.131-2.861,18.488-3.809,24.037-7.679a17.165,17.165,0,0,0,1.27-2.461c.635-1.452,1.217-3.044,1.583-4.122a50.817,50.817,0,0,1-4.148-5.913l-4.2-6.687a12.292,12.292,0,0,1-2.383-6.1,4.749,4.749,0,0,1,.417-2.191A4.005,4.005,0,0,1,33,45.195a4.294,4.294,0,0,1,1.017-.513,105.806,105.806,0,0,1-.2-12.018,16.653,16.653,0,0,1,.513-2.722,16.1,16.1,0,0,1,7.1-9.044,22.243,22.243,0,0,1,5.948-2.644c1.339-.383-1.139-4.644.243-4.792,6.67-.687,17.462,5.409,22.123,10.444a16.3,16.3,0,0,1,4.113,10.3L73.6,45.108h0a3.022,3.022,0,0,1,2.209,2.287c.339,1.331-.026,3.192-1.157,5.74h0a1.037,1.037,0,0,1-.07.139l-4.792,7.888a41.051,41.051,0,0,1-5.87,8.1c.217.313.435.617.644.922a27.988,27.988,0,0,0,3.131,4.026.686.686,0,0,1,.1.13c5.513,3.9,18.932,4.844,24.08,7.714l.209.122a48.158,48.158,0,1,0-77.31-.017Z" transform="translate(0 0)"/></g></g></svg>